<?xml version="1.0" encoding="UTF-8"?>
<svg width="32px" height="32px" viewBox="0 0 32 32" version="1.1" xmlns="http://www.w3.org/2000/svg" xmlns:xlink="http://www.w3.org/1999/xlink">
    <title>icon_facebook</title>
    <g id="icon_facebook" stroke="none" stroke-width="1" fill="none" fill-rule="evenodd">
        <rect id="Rectangle" x="0" y="0" width="32" height="32"></rect>
        <path d="M32,16.0973401 C32,7.20769666 24.8358881,0 16,0 C7.16411194,0 0,7.20769666 0,16.0973401 C0,24.131296 5.85009141,30.7911715 13.5002109,32 L13.5002109,20.7515563 L9.43664745,20.7515563 L9.43664745,16.0973401 L13.5002109,16.0973401 L13.5002109,12.5500849 C13.5002109,8.51612903 15.8897483,6.28636106 19.5438054,6.28636106 C21.2943327,6.28636106 23.1258613,6.60101868 23.1258613,6.60101868 L23.1258613,10.5625354 L21.1075798,10.5625354 C19.1207988,10.5625354 18.4997891,11.803056 18.4997891,13.0775325 L18.4997891,16.0973401 L22.9368584,16.0973401 L22.2280973,20.7515563 L18.4997891,20.7515563 L18.4997891,32 C26.1499086,30.7934352 32,24.1335597 32,16.0973401 Z" fill="#FFFFFF" fill-rule="nonzero"></path>
    </g>
</svg>