<?xml version="1.0" encoding="UTF-8"?>
<svg width="43px" height="32px" viewBox="0 0 43 32" version="1.1" xmlns="http://www.w3.org/2000/svg" xmlns:xlink="http://www.w3.org/1999/xlink">
    <title>icon_youtube_medium</title>
    <g id="icon_youtube_medium" stroke="none" stroke-width="1" fill="none" fill-rule="evenodd">
        <rect id="Rectangle" x="0" y="0" width="43" height="32"></rect>
        <path d="M21.8248166,1.00061644 C22.7726825,1.00378669 25.6657834,1.02122309 28.8169506,1.11712328 L29.5207722,1.13975211 L29.5207722,1.13975211 L30.2289755,1.16512066 C33.5377474,1.29014348 36.855247,1.50977817 38.2998136,1.89562288 C40.1499853,2.38845793 41.6072565,3.8405045 42.1017447,5.68449076 C42.3713593,6.6871649 42.5600896,8.01664478 42.6922007,9.38660627 L42.742083,9.93607119 C42.9769713,12.687404 42.9983248,15.447957 43.000266,15.9271375 L43.000266,16.0731821 C42.9984542,16.5204165 42.9797322,18.9549732 42.7862711,21.5144536 L42.742083,22.064147 C42.6089797,23.6231833 42.4073079,25.179232 42.1017447,26.3154761 C41.6072565,28.1594623 40.1499853,29.6118617 38.2998136,30.1046968 C35.3074971,30.9039465 24.278769,30.9900196 21.9380544,30.999289 L21.727589,31 C21.6979053,31.0000815 21.6709757,31.0001468 21.6468858,31.000199 L21.352322,31.000199 C21.3282321,31.0001468 21.3013025,31.0000815 21.2716188,31 L21.0611534,30.999289 C18.7204388,30.9900196 7.69171074,30.9039465 4.69939418,30.1046968 C2.84922255,29.6118617 1.39195134,28.1594623 0.897463147,26.3154761 C0.10690502,23.3746091 0.0120380442,17.6214871 0.000654007178,16.2830863 L0.000654007178,15.7172327 C0.0120380442,14.3788275 0.10690502,8.62566825 0.897463147,5.68449076 C1.39195134,3.8405045 2.84922255,2.38845793 4.69939418,1.89562288 C6.14396079,1.50977817 9.46146041,1.29014348 12.7702324,1.16512066 L13.4784356,1.13975211 C16.8941435,1.02388454 20.156313,1.00402153 21.1743912,1.00061644 Z M17.1994681,9.5713612 L17.1994681,22.4288173 L28.3712907,16.0000893 L17.1994681,9.5713612 Z" id="Combined-Shape" fill="#FFFFFF"></path>
    </g>
</svg>