<?xml version="1.0" encoding="UTF-8"?>
<svg width="32px" height="32px" viewBox="0 0 32 32" version="1.1" xmlns="http://www.w3.org/2000/svg" xmlns:xlink="http://www.w3.org/1999/xlink">
    <title>icon_email</title>
    <g id="icon_email" stroke="none" stroke-width="1" fill="none" fill-rule="evenodd">
        <rect id="Rectangle" x="0" y="0" width="32" height="32"></rect>
        <path d="M3.55271368e-15,8.535 L15.1681091,18.6480754 L15.297073,18.7250524 C15.7802992,18.9816422 16.370348,18.9559832 16.8322097,18.6480754 L16.8322097,18.6480754 L32,8.536 L32.0001594,23.9645161 C32.0001594,26.3441762 30.0935063,28.2861452 27.6997781,28.3951722 L27.4873389,28.4 L4.51297992,28.4 C2.02061798,28.4 0.000159410358,26.4141662 0.000159410358,23.9645161 L0.000159410358,23.9645161 L3.55271368e-15,8.535 Z M27.4873389,3.4 C29.0716611,3.4 30.4652977,4.20243097 31.2704862,5.41634688 L16.0001594,15.596 L0.729832634,5.41634688 C1.53502111,4.20243097 2.92865772,3.4 4.51297992,3.4 L4.51297992,3.4 Z" id="Combined-Shape" fill="#FFFFFF" fill-rule="nonzero"></path>
    </g>
</svg>