<?xml version="1.0" encoding="UTF-8"?>
<svg width="69px" height="40px" viewBox="0 0 69 40" version="1.1" xmlns="http://www.w3.org/2000/svg" xmlns:xlink="http://www.w3.org/1999/xlink">
    <title>FE_Logo_Black</title>
    <g id="Email" stroke="none" stroke-width="1" fill="none" fill-rule="evenodd">
        <g id="e-등록완료" transform="translate(-134.000000, -934.000000)" fill="#FFFFFF" fill-rule="nonzero">
            <g id="Group-4" transform="translate(94.000000, 894.000000)">
                <g id="FE_Logo_Black" transform="translate(40.000000, 40.000000)">
                    <polygon id="Path" points="4.37536657 10.9912023 14.686217 10.9912023 14.686217 17.9589443 27.202346 17.9589443 27.202346 14.2639296 18.8739003 14.2639296 18.8739003 10.9912023 26.4516129 10.9912023 26.4516129 7.42521994 26.3225806 7.42521994 26.3225806 7.42521994 18.8739003 7.42521994 18.8739003 3.67155425 26.7565982 3.67155425 26.7565982 0.0234604106 14.686217 0.0234604106 14.686217 7.42521994 4.37536657 7.42521994 4.37536657 3.71847507 11.9061584 3.71847507 11.9061584 0.0234604106 0.0938416422 0.0234604106 0.0938416422 17.9589443 4.37536657 17.9589443"></polygon>
                    <path d="M12.1642229,35.4252199 C11.5190616,35.7653959 10.7683284,35.9296188 9.91202346,35.9296188 C9.17302053,35.9296188 8.48093842,35.7888563 7.85923754,35.5190616 C7.23753666,35.2492669 6.69794721,34.8739003 6.25219941,34.3929619 C5.80645161,33.9120235 5.45454545,33.3372434 5.19648094,32.6568915 C4.93841642,31.9765396 4.82111437,31.2375367 4.82111437,30.4281525 C4.82111437,29.6304985 4.95014663,28.9032258 5.19648094,28.2346041 C5.45454545,27.5659824 5.80645161,26.9912023 6.26392962,26.4985337 C6.72140762,26.0058651 7.26099707,25.6187683 7.89442815,25.3489736 C8.52785924,25.0791789 9.21994135,24.9266862 9.98240469,24.9266862 C10.6744868,24.9266862 11.3548387,25.0674487 12.0117302,25.3372434 C12.6686217,25.6070381 13.2082111,26.0175953 13.6070381,26.5806452 L16.5513196,23.6363636 C15.7888563,22.7800587 14.8035191,22.1231672 13.5718475,21.6774194 C12.3519062,21.2316716 11.0967742,21.0087977 9.82991202,21.0087977 C8.45747801,21.0087977 7.19061584,21.2316716 6.0058651,21.6656891 C4.82111437,22.111437 3.7888563,22.7331378 2.90909091,23.5542522 C2.02932551,24.3753666 1.3372434,25.3607038 0.84457478,26.5337243 C0.351906158,27.6950147 0.0938416422,28.9970674 0.0938416422,30.4398827 C0.0938416422,31.8475073 0.340175953,33.1260997 0.832844575,34.28739 C1.3255132,35.4486804 1.9941349,36.457478 2.86217009,37.2903226 C3.71847507,38.1231672 4.73900293,38.7683284 5.91202346,39.2258065 C7.08504399,39.6832845 8.36363636,39.9061584 9.74780059,39.9061584 C11.2727273,39.9061584 12.6099707,39.6363636 13.771261,39.1085044 C14.9325513,38.5806452 15.9178886,37.8533724 16.7155425,36.9384164 L13.7008798,34.0997067 C13.3255132,34.6510264 12.8093842,35.085044 12.1642229,35.4252199 Z" id="Path"></path>
                    <path d="M33.1847507,23.542522 C32.3167155,22.7331378 31.2844575,22.111437 30.0762463,21.6656891 C28.8797654,21.2316716 27.5777126,21.0087977 26.170088,21.0087977 C24.7624633,21.0087977 23.4721408,21.2316716 22.2756598,21.6656891 C21.0791789,22.111437 20.058651,22.7331378 19.1788856,23.542522 C18.3108504,24.3519062 17.6304985,25.3372434 17.1378299,26.4985337 C16.6451613,27.659824 16.398827,28.9501466 16.398827,30.3929619 C16.398827,31.8123167 16.6451613,33.1143695 17.1378299,34.28739 C17.6304985,35.4604106 18.3108504,36.4692082 19.1788856,37.3020528 C20.0469208,38.1348974 21.0791789,38.7800587 22.2756598,39.2375367 C23.4721408,39.6950147 24.7624633,39.9178886 26.170088,39.9178886 C27.5777126,39.9178886 28.8680352,39.6950147 30.0762463,39.2375367 C31.2727273,38.7800587 32.3049853,38.1348974 33.1847507,37.3020528 C34.0527859,36.4692082 34.7331378,35.4604106 35.2258065,34.28739 C35.7184751,33.1143695 35.9648094,31.8123167 35.9648094,30.3929619 C35.9648094,28.9618768 35.7184751,27.659824 35.2258065,26.4985337 C34.7331378,25.3372434 34.0527859,24.3519062 33.1847507,23.542522 Z M30.9442815,32.6217009 C30.686217,33.3020528 30.3343109,33.888563 29.8768328,34.3812317 C29.4193548,34.8739003 28.8797654,35.2609971 28.2580645,35.5307918 C27.6363636,35.8123167 26.9442815,35.9530792 26.1818182,35.9530792 C25.4193548,35.9530792 24.7272727,35.8123167 24.1055718,35.5307918 C23.483871,35.2492669 22.9442815,34.8621701 22.4985337,34.3812317 C22.0527859,33.888563 21.7008798,33.3020528 21.4428152,32.6217009 C21.1847507,31.941349 21.0674487,31.1906158 21.0674487,30.3812317 C21.0674487,29.6070381 21.1847507,28.8797654 21.431085,28.1994135 C21.6774194,27.5190616 22.0293255,26.9442815 22.4868035,26.4633431 C22.9442815,25.9824047 23.483871,25.6070381 24.1055718,25.3255132 C24.7272727,25.0439883 25.4193548,24.9032258 26.1818182,24.9032258 C26.9442815,24.9032258 27.6363636,25.0439883 28.2697947,25.3255132 C28.9032258,25.6070381 29.4428152,25.9824047 29.888563,26.4633431 C30.3343109,26.9442815 30.686217,27.5190616 30.9442815,28.1994135 C31.202346,28.8797654 31.3196481,29.6070381 31.3196481,30.3812317 C31.3196481,31.1906158 31.1906158,31.941349 30.9442815,32.6217009 Z" id="Shape"></path>
                    <polygon id="Path" points="50.0175953 33.1964809 49.9472141 33.1964809 42.744868 21.4897361 37.8064516 21.4897361 37.8064516 39.4252199 42.0175953 39.4252199 41.9120235 27.6950147 41.9824047 27.6950147 49.2082111 39.4252199 54.1231672 39.4252199 54.1231672 21.4897361 49.9237537 21.4897361"></polygon>
                    <polygon id="Path" points="68.6217009 25.1847507 68.6217009 21.4897361 56.8093842 21.4897361 56.8093842 39.4252199 61.0909091 39.4252199 61.0909091 32.457478 68.0351906 32.457478 68.0351906 28.8914956 61.0909091 28.8914956 61.0909091 25.1847507"></polygon>
                </g>
            </g>
        </g>
    </g>
</svg>